# xmcd
#
# Track frame offsets:
#	150
#	60412
#	94430
#	110332
#	151280
#	176935
#	190035
#	207407
#	227072
#	234832
#	246425
#	269860
#	287975
#	305955
#	318767
#	329887
#
# Disc length: 4650 seconds
#
# Revision: 9
# Processed by: cddbd v1.5.2PL0 Copyright (c) Steve Scherf et al.
# Submitted via: EasyCDDAExtractor 10.0.5.1
#
DISCID=f8122810
DTITLE=Marvin Gaye - What's Going On [Deluxe Edition] [CD2)
DYEAR=2001
DGENRE=R&B
TTITLE0=Sixties Medley (Live at the Kennedy Center)
TTITLE1=Right On (Live at the Kennedy Center)
TTITLE2=Wholy Holy  (Live at the Kennedy Center)
TTITLE3=Inner City Blues (Make Me Wanna Holler)
TTITLE4=What's Going On (Live at the Kennedy Center)
TTITLE5=What's Happening Brother (Live at the Kennedy Center)
TTITLE6=Flyin' High (In The Friendly Sky) (Live at the Kennedy Center)
TTITLE7=Save The Children (Live at the Kennedy Center)
TTITLE8=God Is Love (Live at the Kennedy Center)
TTITLE9=Stage Dialogue (Live at the Kennedy Center)
TTITLE10=Inner City Blues (Make Me Wanna Holler) (Reprise) (Live at the Kenned
TTITLE10=y Center)
TTITLE11=What's Going On (Reprise) (Live at the Kennedy Center)
TTITLE12=What's Going On (Original Single Version)
TTITLE13=God Is Love (Original Single Version)
TTITLE14=Sad Tomorrows (Original Single Version)
TTITLE15=''Head Title'' aka Distant Lover (Previously Unreleased)
EXTD=YEAR: 2001 ID3G:  14
EXTT0=
EXTT1=
EXTT2=
EXTT3=
EXTT4=
EXTT5=
EXTT6=
EXTT7=
EXTT8=
EXTT9=
EXTT10=
EXTT11=
EXTT12=
EXTT13=
EXTT14=
EXTT15=
PLAYORDER=
